<?xml version="1.0" standalone="no"?>
<!DOCTYPE svg PUBLIC "-//W3C//DTD SVG 20010904//EN"
 "http://www.w3.org/TR/2001/REC-SVG-20010904/DTD/svg10.dtd">
<svg version="1.0" xmlns="http://www.w3.org/2000/svg"
 width="700.000000pt" height="700.000000pt" viewBox="0 0 700.000000 700.000000"
 preserveAspectRatio="xMidYMid meet">
<metadata>
Created by potrace 1.14, written by Peter Selinger 2001-2017
</metadata>
<g transform="translate(0.000000,700.000000) scale(0.100000,-0.100000)"
fill="#000000" stroke="none">
<path d="M3048 6694 c-42 -7 -96 -21 -120 -29 -24 -9 -59 -21 -78 -27 -19 -5
-39 -14 -45 -18 -5 -4 -37 -22 -70 -40 -33 -18 -62 -36 -65 -39 -3 -4 -18 -15
-34 -25 -16 -10 -84 -64 -151 -121 -66 -56 -131 -108 -143 -114 -37 -20 -118
-5 -367 67 -77 22 -166 46 -197 52 -76 15 -219 19 -299 9 -63 -9 -207 -44
-238 -58 -121 -57 -188 -95 -252 -143 -313 -236 -462 -631 -384 -1023 10 -54
57 -189 83 -240 93 -187 255 -352 447 -456 l30 -16 1 -1679 c0 -924 4 -1706 8
-1739 17 -134 69 -267 150 -388 96 -141 260 -266 426 -323 156 -55 114 -53
1475 -51 1132 3 1329 6 1357 23 5 3 19 7 32 10 51 9 176 68 254 120 192 130
332 347 368 574 2 14 6 36 8 50 3 14 5 172 5 351 l1 326 78 6 c102 9 133 14
222 38 209 56 373 152 529 308 179 180 291 408 325 662 12 95 13 240 2 312 -3
20 -9 54 -12 75 -19 121 -107 322 -191 440 -187 262 -483 442 -788 481 -50 6
-106 12 -125 14 l-35 2 -3 195 -2 195 42 20 c58 27 186 123 244 182 110 113
189 241 242 393 27 78 33 103 47 195 7 44 7 214 0 260 -13 93 -40 186 -78 275
-23 52 -45 97 -49 98 -4 2 -8 8 -8 14 0 20 -92 139 -160 207 -129 129 -291
222 -469 266 -94 24 -144 29 -256 28 -113 0 -168 -10 -340 -60 -66 -19 -127
-36 -135 -38 -8 -2 -40 -11 -70 -19 -30 -8 -83 -17 -117 -21 -55 -6 -67 -4
-95 16 -18 13 -35 26 -38 29 -11 11 -158 137 -200 171 -106 85 -247 156 -377
190 -98 26 -278 32 -385 13z"/>
</g>
</svg>
